<?xml version="1.0" encoding="utf-8"?>
<!-- Generator: Adobe Illustrator 25.4.1, SVG Export Plug-In . SVG Version: 6.00 Build 0)  -->
<svg version="1.1" id="Layer_1" xmlns="http://www.w3.org/2000/svg" xmlns:xlink="http://www.w3.org/1999/xlink" x="0px" y="0px"
	 viewBox="0 0 595.86 500" style="enable-background:new 0 0 595.86 500;" xml:space="preserve">
<style type="text/css">
	.st0{opacity:0.7;}
	.st1{opacity:0.9;}
	.st2{opacity:0.5;}
	.st3{opacity:0.3;}
	.st4{fill:#FFFFFF;}
	.st5{opacity:0.9;fill:#FFFFFF;}
	.st6{opacity:0.5;fill:#FFFFFF;}
	.st7{opacity:0.3;fill:#FFFFFF;}
	.st8{fill:#B360F4;}
	.st9{opacity:0.9;fill:#B360F4;}
	.st10{opacity:0.5;fill:#B360F4;}
	.st11{opacity:0.3;fill:#B360F4;}
	.st12{fill:#FFB55F;}
	.st13{fill:#5E5182;}
	.st14{fill:#76B2FF;}
	.st15{fill:#FF6D57;}
</style>
<g>
	<g>
		<path d="M81.63,420.21c5.31,6.59,11.85,11.74,22.35,11.74c6.32,0,9.03-2.76,9.03-6.35c0-4.31-3.5-5.99-20.32-8.99
			c-19.53-3.47-27.1-9.95-27.1-24.92c0-15.1,12.08-27.32,33.53-27.32c15.47,0,28.79,5.63,38.95,17.73l-19.19,16.54
			c-4.74-7.43-11.74-11.86-21.56-11.86c-7,0-9.71,2.88-9.71,6.35c0,3.83,2.26,5.51,15.92,7.79c24.95,4.19,32.4,12.22,32.29,26.6
			c0,16.18-12.65,27.2-33.19,27.2c-20.21,0-31.16-6.83-40.42-16.54L81.63,420.21z"/>
		<path d="M189.11,450.65c-3.27,2.28-8.92,3.95-14.79,3.95c-17.61,0-21.9-8.03-21.9-23.25v-25.64h-12.76V386.3h12.87v-16.54
			l22.47-9.59v26.12h14.11v19.41H175v20.97c0,6.11,2.03,7.91,6.77,7.91c3.16,0,5.31-0.72,7.34-1.8V450.65z"/>
		<path d="M229.41,454.6c-23.82,0-34.66-14.5-34.66-33.79c0-20.13,12.65-35.83,35.9-35.83s33.76,15.58,33.76,32.59v6.47h-46.4
			c0.56,8.15,4.74,11.86,12.42,11.86c5.98,0,9.03-2.52,11.18-8.27l21.45,6.11C258.32,446.09,247.82,454.6,229.41,454.6z
			 M218.12,413.5h22.69c-0.34-6.95-3.84-11.38-10.95-11.38C223.2,402.12,219.14,406.07,218.12,413.5z"/>
		<path d="M297.15,453.4h-24.39v-67.1h24.27v17.01c3.95-12.58,10.95-18.33,21-18.33c11.4,0,17.5,6.47,19.31,17.49
			c4.29-12.1,11.97-17.49,21.68-17.49c13.89,0,21.56,9.83,21.56,25.88v42.54H356.2v-34.51c0-10.78-2.6-14.5-8.58-14.5
			c-6.21,0-9.03,5.39-9.03,17.73v31.27h-23.82v-34.51c0-10.78-2.6-14.5-8.58-14.5c-6.21,0-9.03,5.39-9.03,17.73V453.4z"/>
		<path d="M456.23,453.4h-24.27v-15.82c-3.73,11.98-10.5,17.13-20.32,17.13c-14.34,0-20.89-9.83-20.89-25.88V386.3h24.39v34.87
			c0,10.66,2.26,14.5,8.35,14.5c6.21,0,8.35-5.39,8.35-17.73V386.3h24.39V453.4z"/>
		<path d="M491.79,453.4h-24.27v-95.38h24.27V453.4z"/>
		<g>
			<path d="M519.09,384.92c-9.48,0-14.9-6.11-14.9-14.86c0-9.11,5.53-15.34,15.02-15.34c9.26,0,14.45,6.23,14.45,15.34
				C533.65,378.81,528.23,384.92,519.09,384.92z"/>
			<path d="M503.19,387.85v65.55h24.5v-61.47c-2.54,0.86-5.38,1.33-8.51,1.33C512.48,393.25,507.08,391.28,503.19,387.85z"/>
			<path d="M519.2,354.73c-9.48,0-15.02,6.23-15.02,15.34c0,8.75,5.42,14.86,14.9,14.86c9.14,0,14.56-6.11,14.56-14.86
				C533.65,360.96,528.46,354.73,519.2,354.73z"/>
		</g>
	</g>
</g>
<g>
	<g>
		<path class="st8" d="M304.14,292.19h2.1c47.55,0,86.09-38.55,86.09-86.09v0c0-47.55-38.55-86.09-86.09-86.09h-2.1V292.19z"/>
	</g>
	<circle class="st12" cx="253.83" cy="241.89" r="50.3"/>
	<path class="st13" d="M304.14,120.01h-98.71v0c0-41.07,33.29-74.36,74.36-74.36h24.34V120.01z"/>
	<path class="st14" d="M304.14,194.37h-24.34c-41.07,0-74.36-33.29-74.36-74.36v0h98.71V194.37z"/>
	<rect x="304.14" y="45.64" class="st15" width="84.66" height="74.36"/>
</g>
</svg>
