<?xml version="1.0" encoding="utf-8"?>
<!-- Generator: Adobe Illustrator 25.4.1, SVG Export Plug-In . SVG Version: 6.00 Build 0)  -->
<svg version="1.1" id="Layer_1" xmlns="http://www.w3.org/2000/svg" xmlns:xlink="http://www.w3.org/1999/xlink" x="0px" y="0px"
	 viewBox="0 0 2008.67 500" style="enable-background:new 0 0 2008.67 500;" xml:space="preserve">
<style type="text/css">
	.st0{opacity:0.7;}
	.st1{opacity:0.9;}
	.st2{opacity:0.5;}
	.st3{opacity:0.3;}
	.st4{fill:#FFFFFF;}
	.st5{opacity:0.9;fill:#FFFFFF;}
	.st6{opacity:0.5;fill:#FFFFFF;}
	.st7{opacity:0.3;fill:#FFFFFF;}
	.st8{fill:#B360F4;}
	.st9{opacity:0.9;fill:#B360F4;}
	.st10{opacity:0.5;fill:#B360F4;}
	.st11{opacity:0.3;fill:#B360F4;}
	.st12{fill:#FFB55F;}
	.st13{fill:#5E5182;}
	.st14{fill:#76B2FF;}
	.st15{fill:#FF6D57;}
</style>
<g>
	<g>
		<path class="st8" d="M212.83,454.36h3.48c78.82,0,142.72-63.9,142.72-142.72v0c0-78.82-63.9-142.72-142.72-142.72h-3.48V454.36z"
			/>
	</g>
	<circle class="st12" cx="129.44" cy="370.97" r="83.39"/>
	<path class="st13" d="M212.83,168.92H49.19v0c0-68.08,55.19-123.28,123.28-123.28h40.36V168.92z"/>
	<path class="st14" d="M212.83,292.19h-40.36c-68.08,0-123.28-55.19-123.28-123.28v0h163.63V292.19z"/>
	<rect x="212.83" y="45.64" class="st15" width="140.35" height="123.28"/>
</g>
<g>
	<path d="M544.28,283.48c16.45,20.44,36.76,36.41,69.32,36.41c19.6,0,28.01-8.55,28.01-19.69c0-13.38-10.85-18.58-63.01-27.87
		c-60.56-10.77-84.02-30.84-84.02-77.28c0-46.81,37.46-84.71,103.97-84.71c47.96,0,89.27,17.46,120.78,54.99l-59.51,51.27
		c-14.7-23.04-36.41-36.78-66.86-36.78c-21.71,0-30.11,8.92-30.11,19.69c0,11.89,7,17.09,49.36,24.15
		c77.37,13,100.47,37.9,100.12,82.48c0,50.16-39.21,84.34-102.92,84.34c-62.66,0-96.62-21.18-125.33-51.27L544.28,283.48z"/>
	<path d="M877.56,377.85c-10.15,7.06-27.66,12.26-45.86,12.26c-54.61,0-67.92-24.89-67.92-72.08v-79.51h-39.56v-60.19h39.91v-51.27
		l69.67-29.72v81h43.76v60.19H833.8v65.02c0,18.95,6.3,24.52,21,24.52c9.8,0,16.45-2.23,22.76-5.57V377.85z"/>
	<path d="M1002.53,390.11c-73.87,0-107.47-44.96-107.47-104.77c0-62.42,39.21-111.09,111.32-111.09s104.67,48.3,104.67,101.06v20.06
		H967.18c1.75,25.27,14.7,36.78,38.51,36.78c18.55,0,28.01-7.8,34.66-25.64l66.51,18.95
		C1092.15,363.73,1059.6,390.11,1002.53,390.11z M967.53,262.67h70.37c-1.05-21.55-11.9-35.3-33.96-35.3
		C983.28,227.37,970.68,239.64,967.53,262.67z"/>
	<path d="M1212.58,386.39h-75.62V178.33h75.27v52.76c12.25-39.01,33.96-56.84,65.11-56.84c35.36,0,54.26,20.06,59.86,54.24
		c13.3-37.53,37.11-54.24,67.21-54.24c43.06,0,66.87,30.47,66.87,80.25v131.9h-75.62v-107c0-33.44-8.05-44.96-26.61-44.96
		c-19.25,0-28.01,16.72-28.01,54.99v96.97h-73.87v-107c0-33.44-8.05-44.96-26.61-44.96c-19.25,0-28.01,16.72-28.01,54.99V386.39z"/>
	<path d="M1705.84,386.39h-75.27v-49.04c-11.55,37.15-32.56,53.13-63.01,53.13c-44.46,0-64.77-30.47-64.77-80.25v-131.9h75.62
		v108.12c0,33.07,7,44.96,25.91,44.96c19.25,0,25.9-16.72,25.9-54.99v-98.09h75.62V386.39z"/>
	<path d="M1816.11,386.39h-75.27V90.65h75.27V386.39z"/>
	<g>
		<path d="M1900.75,174.06c-29.41,0-46.21-18.95-46.21-46.07c0-28.24,17.15-47.56,46.56-47.56c28.71,0,44.81,19.32,44.81,47.56
			C1945.91,155.11,1929.11,174.06,1900.75,174.06z"/>
		<path d="M1851.46,183.13v203.27h75.97V195.78c-7.87,2.68-16.69,4.11-26.39,4.11C1880.24,199.89,1863.52,193.76,1851.46,183.13z"/>
		<path d="M1901.1,80.43c-29.41,0-46.56,19.32-46.56,47.56c0,27.12,16.8,46.07,46.21,46.07c28.36,0,45.16-18.95,45.16-46.07
			C1945.91,99.75,1929.81,80.43,1901.1,80.43z"/>
	</g>
</g>
</svg>
